<svg width="24" height="24" viewBox="0 0 24 24" fill="none" xmlns="http://www.w3.org/2000/svg">
<g opacity="0.54">
<path fill-rule="evenodd" clip-rule="evenodd" d="M16.3775 14.5H15.385L15.04 14.1575C16.2588 12.7362 17 10.8938 17 8.875C17 4.3875 13.3625 0.75 8.875 0.75C4.3875 0.75 0.75 4.3875 0.75 8.875C0.75 13.3625 4.3875 17 8.875 17C10.8938 17 12.735 16.26 14.1563 15.0425L14.5013 15.385V16.375L20.7488 22.6137L22.6125 20.75L16.3775 14.5ZM8.87501 14.5C5.76751 14.5 3.25001 11.9825 3.25001 8.875C3.25001 5.76875 5.76751 3.25 8.87501 3.25C11.9813 3.25 14.5 5.76875 14.5 8.875C14.5 11.9825 11.9813 14.5 8.87501 14.5Z" fill="black"/>
<path d="M16.3775 14.5V14H16.585L16.7315 14.1469L16.3775 14.5ZM15.385 14.5V15H15.179L15.0327 14.8548L15.385 14.5ZM15.04 14.1575L14.6877 14.5123L14.3579 14.1849L14.6604 13.832L15.04 14.1575ZM14.1563 15.0425L13.831 14.6628L14.1812 14.3627L14.5085 14.6877L14.1563 15.0425ZM14.5013 15.385L14.8535 15.0302L15.0013 15.1768V15.385H14.5013ZM14.5013 16.375L14.1479 16.7288L14.0013 16.5823V16.375H14.5013ZM20.7488 22.6137L21.1023 22.9673L20.749 23.3206L20.3954 22.9675L20.7488 22.6137ZM22.6125 20.75L22.9665 20.3969L23.3192 20.7504L22.9661 21.1036L22.6125 20.75ZM16.3775 15H15.385V14H16.3775V15ZM15.0327 14.8548L14.6877 14.5123L15.3923 13.8027L15.7373 14.1452L15.0327 14.8548ZM14.6604 13.832C15.8052 12.4971 16.5 10.7688 16.5 8.875H17.5C17.5 11.0187 16.7123 12.9754 15.4196 14.483L14.6604 13.832ZM16.5 8.875C16.5 4.66364 13.0864 1.25 8.875 1.25V0.25C13.6386 0.25 17.5 4.11136 17.5 8.875H16.5ZM8.875 1.25C4.66364 1.25 1.25 4.66364 1.25 8.875H0.25C0.25 4.11136 4.11136 0.25 8.875 0.25V1.25ZM1.25 8.875C1.25 13.0864 4.66364 16.5 8.875 16.5V17.5C4.11136 17.5 0.25 13.6386 0.25 8.875H1.25ZM8.875 16.5C10.7689 16.5 12.496 15.8063 13.831 14.6628L14.4815 15.4222C12.974 16.7137 11.0186 17.5 8.875 17.5V16.5ZM14.5085 14.6877L14.8535 15.0302L14.149 15.7398L13.804 15.3973L14.5085 14.6877ZM15.0013 15.385V16.375H14.0013V15.385H15.0013ZM14.8546 16.0212L21.1021 22.2599L20.3954 22.9675L14.1479 16.7288L14.8546 16.0212ZM20.3952 22.2602L22.2589 20.3964L22.9661 21.1036L21.1023 22.9673L20.3952 22.2602ZM22.2585 21.1031L16.0235 14.8531L16.7315 14.1469L22.9665 20.3969L22.2585 21.1031ZM8.87501 15C5.49136 15 2.75001 12.2586 2.75001 8.875H3.75001C3.75001 11.7064 6.04365 14 8.87501 14V15ZM2.75001 8.875C2.75001 5.49268 5.49129 2.75 8.87501 2.75V3.75C6.04372 3.75 3.75001 6.04482 3.75001 8.875H2.75001ZM8.87501 2.75C12.2574 2.75 15 5.49261 15 8.875H14C14 6.04489 11.7051 3.75 8.87501 3.75V2.75ZM15 8.875C15 12.2587 12.2573 15 8.87501 15V14C11.7052 14 14 11.7063 14 8.875H15Z" fill="black"/>
</g>
</svg>
